<svg width="118" height="59" viewBox="0 0 118 59" fill="none" xmlns="http://www.w3.org/2000/svg">
<path d="M18.4825 47.2396C10.0704 47.2396 2.37463 43.7102 0 35.9439L7.6969 32.9301C9.44123 37.3532 13.6098 39.8601 18.7469 39.8601C23.3607 39.8601 27.7342 38.0673 27.7342 33.8238C27.7342 23.1715 2.7581 31.2596 2.7581 13.6102C2.7581 5.00532 9.87759 0.000404358 18.7469 0.000404358C26.3777 0.000404358 33.3077 3.08027 35.365 9.75899L27.9766 12.6493C26.1783 8.79481 22.8395 7.19042 18.4252 7.19042C14.6974 7.19042 11.1029 9.18269 11.1029 13.2884C11.1029 16.4961 14.1872 17.6498 17.7772 18.6151C25.1535 20.6019 36.0702 21.1176 36.0702 33.2464C36.0702 41.6529 28.5628 47.2396 18.4825 47.2396Z" fill="black"/>
<path d="M55.5576 47.3013C51.8882 47.3013 48.8877 45.4424 47.2172 43.2573H47.0188V58.9233H39.1941V13.6719H46.826V17.4603H46.891C49.4552 14.3771 53.1862 13.0328 56.1295 13.0328C63.3206 13.0328 69.0913 17.5848 69.0913 25.9947V33.9516C69.0913 42.8782 62.871 47.3013 55.5576 47.3013ZM61.1443 26.0652C61.1443 22.0828 58.06 19.7732 54.016 19.7732C50.7466 19.7732 47.0188 21.9506 47.0188 26.7043V34.3395C47.0188 38.313 50.2276 40.692 54.2838 40.692C57.5443 40.692 61.1443 38.9565 61.1443 34.2117V26.0652Z" fill="black"/>
<rect x="72.4136" y="13.6726" width="7.82582" height="32.8625" fill="black"/>
<path d="M103.431 20.214C102.67 20.214 101.246 20.3473 100.478 20.5402C95.7346 21.7611 93.1032 24.6459 93.1032 29.7136V46.5344H85.2664V13.6719H92.9004V19.1308H93.0327C94.9632 15.6631 99.8348 13.0328 103.758 13.0328C104.582 13.0328 105.546 13.0328 106.384 13.2223V20.4079C105.361 20.214 104.523 20.214 103.431 20.214Z" fill="black"/>
<rect x="110.172" y="13.6726" width="7.82913" height="32.8625" fill="black"/>
<rect x="72.4136" y="3.18231" width="7.82582" height="6.99718" fill="black"/>
<rect x="110.172" y="3.18231" width="7.82913" height="6.99718" fill="black"/>
</svg>
