<svg width="118" height="59" viewBox="0 0 118 59" fill="none" xmlns="http://www.w3.org/2000/svg">
<path d="M18.4825 47.2397C10.0704 47.2397 2.37463 43.7103 0 35.944L7.6969 32.9302C9.44123 37.3533 13.6098 39.8602 18.7469 39.8602C23.3607 39.8602 27.7342 38.0674 27.7342 33.8239C27.7342 23.1716 2.7581 31.2597 2.7581 13.6103C2.7581 5.0054 9.87759 0.000488281 18.7469 0.000488281C26.3777 0.000488281 33.3077 3.08035 35.365 9.75908L27.9766 12.6494C26.1783 8.7949 22.8395 7.1905 18.4252 7.1905C14.6974 7.1905 11.1029 9.18277 11.1029 13.2885C11.1029 16.4962 14.1872 17.6499 17.7772 18.6152C25.1535 20.6019 36.0702 21.1176 36.0702 33.2465C36.0702 41.653 28.5628 47.2397 18.4825 47.2397Z" fill="white"/>
<path d="M55.5576 47.3015C51.8882 47.3015 48.8877 45.4426 47.2172 43.2575H47.0188V58.9234H39.1941V13.6721H46.826V17.4605H46.891C49.4552 14.3773 53.1863 13.033 56.1295 13.033C63.3206 13.033 69.0914 17.585 69.0914 25.9948V33.9518C69.0914 42.8784 62.871 47.3015 55.5576 47.3015ZM61.1443 26.0653C61.1443 22.083 58.0601 19.7734 54.016 19.7734C50.7466 19.7734 47.0188 21.9508 47.0188 26.7045V34.3396C47.0188 38.3132 50.2276 40.6922 54.2838 40.6922C57.5444 40.6922 61.1443 38.9567 61.1443 34.2118V26.0653Z" fill="white"/>
<rect x="72.4137" y="13.6726" width="7.82582" height="32.8625" fill="white"/>
<path d="M103.432 20.2142C102.67 20.2142 101.246 20.3475 100.478 20.5403C95.7346 21.7613 93.1033 24.6461 93.1033 29.7138V46.5346H85.2664V13.6721H92.9005V19.131H93.0327C94.9633 15.6632 99.8349 13.033 103.758 13.033C104.582 13.033 105.546 13.033 106.384 13.2225V20.4081C105.361 20.2142 104.524 20.2142 103.432 20.2142Z" fill="white"/>
<rect x="110.172" y="13.6726" width="7.82913" height="32.8625" fill="white"/>
<rect x="72.4137" y="3.18237" width="7.82582" height="6.99718" fill="white"/>
<rect x="110.172" y="3.18237" width="7.82913" height="6.99718" fill="white"/>
</svg>
